<svg width="223" height="30" viewBox="0 0 223 30" fill="none" xmlns="http://www.w3.org/2000/svg">
<path d="M16.3341 0.991998H28.3581V6.896H26.9181L20.4741 29H8.81014L2.36614 6.896H0.926141V0.991998H14.7501V6.896H12.8781L15.3621 18.956H15.7221L18.2061 6.896H16.3341V0.991998ZM49.3411 23.096V29H39.8371V26.552C39.3091 27.32 38.5651 28.004 37.6051 28.604C36.6691 29.204 35.5171 29.504 34.1491 29.504C32.3491 29.504 30.9331 29.024 29.9011 28.064C28.8691 27.104 28.3531 25.748 28.3531 23.996C28.3531 19.46 32.2051 17.132 39.9091 17.012C39.8371 16.196 39.5251 15.644 38.9731 15.356C38.4211 15.044 37.4851 14.888 36.1651 14.888C35.0851 14.888 33.9211 15.008 32.6731 15.248C31.4491 15.464 30.3211 15.764 29.2891 16.148V9.524C30.5611 9.212 31.9411 8.96 33.4291 8.768C34.9171 8.576 36.3691 8.48 37.7851 8.48C41.3611 8.48 43.9171 9.128 45.4531 10.424C46.9891 11.72 47.7571 13.724 47.7571 16.436V23.096H49.3411ZM39.8371 20.576C38.7571 20.576 37.9171 20.72 37.3171 21.008C36.7411 21.296 36.4531 21.776 36.4531 22.448C36.4531 22.856 36.5731 23.192 36.8131 23.456C37.0771 23.696 37.4371 23.816 37.8931 23.816C38.5171 23.816 38.9971 23.552 39.3331 23.024C39.6691 22.496 39.8371 21.752 39.8371 20.792V20.576ZM74.4055 23.096V29H63.0295V23.096H64.5415V17.192C64.5415 16.4 64.3735 15.824 64.0375 15.464C63.7015 15.08 63.1975 14.888 62.5255 14.888C61.0855 14.888 60.3655 15.656 60.3655 17.192V23.096H61.8775V29H50.5015V23.096H52.0855V14.888H50.5015V8.984H60.3655V11.792C62.0935 9.584 64.2535 8.48 66.8455 8.48C68.8375 8.48 70.3255 9.104 71.3095 10.352C72.3175 11.6 72.8215 13.316 72.8215 15.5V23.096H74.4055ZM77.2959 7.004V0.991998H84.6399V7.004H77.2959ZM75.5679 29V23.096H77.1519V14.888H75.5679V8.984H85.4319V23.096H87.0159V29H75.5679ZM88.0132 29.036V23.096H89.5972V6.896H88.0132V0.991998H97.8772V23.096H99.4612V29.036H88.0132ZM100.599 29.036V23.096H102.183V6.896H100.599V0.991998H110.463V23.096H112.047V29.036H100.599ZM134.173 23.096V29H124.669V26.552C124.141 27.32 123.397 28.004 122.437 28.604C121.501 29.204 120.349 29.504 118.981 29.504C117.181 29.504 115.765 29.024 114.733 28.064C113.701 27.104 113.185 25.748 113.185 23.996C113.185 19.46 117.037 17.132 124.741 17.012C124.669 16.196 124.357 15.644 123.805 15.356C123.253 15.044 122.317 14.888 120.997 14.888C119.917 14.888 118.753 15.008 117.505 15.248C116.281 15.464 115.153 15.764 114.121 16.148V9.524C115.393 9.212 116.773 8.96 118.261 8.768C119.749 8.576 121.201 8.48 122.617 8.48C126.193 8.48 128.749 9.128 130.285 10.424C131.821 11.72 132.589 13.724 132.589 16.436V23.096H134.173ZM124.669 20.576C123.589 20.576 122.749 20.72 122.149 21.008C121.573 21.296 121.285 21.776 121.285 22.448C121.285 22.856 121.405 23.192 121.645 23.456C121.909 23.696 122.269 23.816 122.725 23.816C123.349 23.816 123.829 23.552 124.165 23.024C124.501 22.496 124.669 21.752 124.669 20.792V20.576ZM155.307 29.504C153.459 29.504 151.707 29.3 150.051 28.892C148.395 28.46 147.015 27.872 145.911 27.128V20.792H153.111V21.152C153.111 22.448 153.735 23.096 154.983 23.096C155.631 23.096 156.111 22.928 156.423 22.592C156.759 22.232 156.927 21.68 156.927 20.936V6.896H153.687V0.991998H168.807V6.896H167.007V18.992C167.007 22.52 165.975 25.16 163.911 26.912C161.847 28.64 158.979 29.504 155.307 29.504ZM181.335 29.504C179.031 29.504 176.847 29.312 174.783 28.928C172.743 28.52 171.171 28.064 170.067 27.56V20.432H177.987C177.987 21.176 178.155 21.716 178.491 22.052C178.827 22.388 179.439 22.556 180.327 22.556C181.071 22.556 181.599 22.448 181.911 22.232C182.247 21.992 182.415 21.644 182.415 21.188C182.415 20.804 182.259 20.48 181.947 20.216C181.635 19.928 181.095 19.64 180.327 19.352L177.231 18.272C174.567 17.264 172.647 16.076 171.471 14.708C170.319 13.34 169.743 11.492 169.743 9.164C169.743 6.332 170.667 4.184 172.515 2.72C174.387 1.232 177.495 0.487998 181.839 0.487998C183.927 0.487998 185.883 0.703998 187.707 1.136C189.555 1.544 191.043 2.096 192.171 2.792V9.236H184.971C184.971 8.036 184.227 7.436 182.739 7.436C182.019 7.436 181.503 7.532 181.191 7.724C180.903 7.892 180.759 8.204 180.759 8.66C180.759 9.068 180.927 9.392 181.263 9.632C181.623 9.872 182.199 10.124 182.991 10.388L186.123 11.468C188.667 12.332 190.515 13.46 191.667 14.852C192.843 16.22 193.431 18.02 193.431 20.252C193.431 23.3 192.399 25.604 190.335 27.164C188.295 28.724 185.295 29.504 181.335 29.504ZM220.497 23.096H222.009V29H208.401V23.096H209.877L207.789 20.144H207.429L205.341 23.096H206.817V29H194.217V23.096H196.089L203.001 15.32L195.801 6.896H194.289V0.991998H207.789V6.896H206.421L208.401 9.848H208.761L210.741 6.896H209.373V0.991998H221.865V6.896H219.993L213.189 14.564L220.497 23.096Z" fill="url(#paint0_radial_245_1092)"/>
<defs>
<radialGradient id="paint0_radial_245_1092" cx="0" cy="0" r="1" gradientUnits="userSpaceOnUse" gradientTransform="translate(111.5 16) scale(111.5 248.397)">
<stop stop-color="#2097F6"/>
<stop offset="1" stop-color="#5452F6"/>
</radialGradient>
</defs>
</svg>
